<svg width="1200" height="720" viewBox="0 0 1200 720" fill="none" xmlns="http://www.w3.org/2000/svg">
  <defs>
    <linearGradient id="bg2" x1="90" y1="95" x2="1110" y2="640" gradientUnits="userSpaceOnUse">
      <stop stop-color="#1F2937"/>
      <stop offset="1" stop-color="#0B1324"/>
    </linearGradient>
    <linearGradient id="seat" x1="340" y1="180" x2="760" y2="560" gradientUnits="userSpaceOnUse">
      <stop stop-color="#334155"/>
      <stop offset="1" stop-color="#0F172A"/>
    </linearGradient>
  </defs>
  <rect width="1200" height="720" fill="url(#bg2)"/>
  <rect x="200" y="110" width="800" height="500" rx="36" fill="#020617" fill-opacity="0.36"/>
  <path d="M360 520V240C360 190 398 150 446 150H610C700 150 770 220 770 310V520H360Z" fill="url(#seat)"/>
  <path d="M500 520V300C500 270 524 246 554 246H652C713 246 762 295 762 356V520H500Z" fill="#111827"/>
  <rect x="432" y="215" width="44" height="252" rx="20" fill="#1E293B"/>
  <rect x="562" y="215" width="44" height="252" rx="20" fill="#1E293B"/>
  <rect x="690" y="215" width="44" height="252" rx="20" fill="#1E293B"/>
  <circle cx="855" cy="235" r="11" fill="#38BDF8"/>
  <circle cx="890" cy="200" r="8" fill="#F8FAFC" fill-opacity="0.85"/>
  <circle cx="920" cy="175" r="6" fill="#F8FAFC" fill-opacity="0.65"/>
</svg>
